<mxfile host="app.diagrams.net" modified="2024-03-15T02:38:55.767Z" agent="Mozilla/5.0 (Windows NT 10.0; Win64; x64) AppleWebKit/537.36 (KHTML, like Gecko) Chrome/122.0.0.0 Safari/537.36" version="24.0.6" etag="DeO2OygfF_43B2y7CzPg" type="github">
  <diagram name="ページ1" id="y8jaf4KYFMGn9sLyBysj">
    <mxGraphModel>
      <root>
        <mxCell id="0" />
        <mxCell id="1" parent="0" />
      </root>
    </mxGraphModel>
  </diagram>
</mxfile>
